<?xml version="1.0" standalone="no"?><!-- Generator: Gravit.io --><svg xmlns="http://www.w3.org/2000/svg" xmlns:xlink="http://www.w3.org/1999/xlink" style="isolation:isolate" viewBox="0 0 120 70" width="120" height="70"><defs><clipPath id="_clipPath_UuGpVY1Cocnm3IWqAykI1nsOfkyqd6af"><rect width="120" height="70"/></clipPath></defs><g clip-path="url(#_clipPath_UuGpVY1Cocnm3IWqAykI1nsOfkyqd6af)"><path d=" M 63.071 47.234 L 63.071 47.234 Q 64.45 47.234 65.378 48.109 L 65.378 48.109 L 65.378 48.109 Q 66.306 48.984 66.306 50.363 L 66.306 50.363 L 66.306 50.363 Q 66.306 51.688 65.378 52.563 L 65.378 52.563 L 65.378 52.563 Q 64.45 53.438 63.071 53.438 L 63.071 53.438 L 45.835 53.438 L 45.835 53.438 Q 44.456 53.438 43.528 52.51 L 43.528 52.51 L 43.528 52.51 Q 42.6 51.582 42.6 50.203 L 42.6 50.203 L 42.6 19.55 L 42.6 19.55 Q 42.6 18.171 43.555 17.243 L 43.555 17.243 L 43.555 17.243 Q 44.51 16.315 45.994 16.315 L 45.994 16.315 L 45.994 16.315 Q 47.32 16.315 48.275 17.243 L 48.275 17.243 L 48.275 17.243 Q 49.23 18.171 49.23 19.55 L 49.23 19.55 L 49.23 47.234 L 63.071 47.234 Z  M 79.035 50.203 L 79.035 50.203 Q 79.035 51.582 78.027 52.51 L 78.027 52.51 L 78.027 52.51 Q 77.019 53.438 75.693 53.438 L 75.693 53.438 L 75.693 53.438 Q 74.262 53.438 73.333 52.51 L 73.333 52.51 L 73.333 52.51 Q 72.405 51.582 72.405 50.203 L 72.405 50.203 L 72.405 19.55 L 72.405 19.55 Q 72.405 18.171 73.36 17.243 L 73.36 17.243 L 73.36 17.243 Q 74.315 16.315 75.8 16.315 L 75.8 16.315 L 75.8 16.315 Q 77.125 16.315 78.08 17.243 L 78.08 17.243 L 78.08 17.243 Q 79.035 18.171 79.035 19.55 L 79.035 19.55 L 79.035 50.203 Z  M 102.316 16.315 L 102.316 16.315 Q 105.021 16.315 107.461 17.932 L 107.461 17.932 L 107.461 17.932 Q 109.9 19.55 111.385 22.281 L 111.385 22.281 L 111.385 22.281 Q 112.87 25.012 112.87 28.247 L 112.87 28.247 L 112.87 28.247 Q 112.87 31.429 111.385 34.187 L 111.385 34.187 L 111.385 34.187 Q 109.9 36.945 107.461 38.562 L 107.461 38.562 L 107.461 38.562 Q 105.021 40.18 102.316 40.18 L 102.316 40.18 L 93.089 40.18 L 93.089 50.203 L 93.089 50.203 Q 93.089 51.635 92.24 52.537 L 92.24 52.537 L 92.24 52.537 Q 91.392 53.438 90.013 53.438 L 90.013 53.438 L 90.013 53.438 Q 88.687 53.438 87.838 52.51 L 87.838 52.51 L 87.838 52.51 Q 86.99 51.582 86.99 50.203 L 86.99 50.203 L 86.99 19.55 L 86.99 19.55 Q 86.99 18.171 87.918 17.243 L 87.918 17.243 L 87.918 17.243 Q 88.846 16.315 90.225 16.315 L 90.225 16.315 L 102.316 16.315 Z  M 102.316 34.134 L 102.316 34.134 Q 103.324 34.134 104.305 33.286 L 104.305 33.286 L 104.305 33.286 Q 105.286 32.437 105.896 31.085 L 105.896 31.085 L 105.896 31.085 Q 106.506 29.732 106.506 28.247 L 106.506 28.247 L 106.506 28.247 Q 106.506 26.762 105.896 25.41 L 105.896 25.41 L 105.896 25.41 Q 105.286 24.058 104.305 23.236 L 104.305 23.236 L 104.305 23.236 Q 103.324 22.414 102.316 22.414 L 102.316 22.414 L 93.089 22.414 L 93.089 34.134 L 102.316 34.134 Z " fill-rule="evenodd" fill="rgb(3,34,55)"/><g><line x1="34.928" y1="43.968" x2="38.42" y2="47.46"/><path d=" M 31.829 44.901 C 32.637 44.388 33.615 44.211 34.553 44.411 C 35.502 44.613 36.331 45.184 36.859 45.998 C 37.387 46.812 37.57 47.802 37.368 48.751 C 37.168 49.688 36.608 50.509 35.81 51.038 L 35.154 50.027 C 35.684 49.672 36.056 49.125 36.189 48.5 C 36.325 47.863 36.201 47.2 35.848 46.654 C 35.494 46.109 34.938 45.725 34.302 45.59 C 33.683 45.458 33.006 45.554 32.469 45.886 L 31.829 44.901 Z " fill="rgb(3,34,55)"/><path d=" M 32.524 46.232 C 32.525 46.232 32.526 46.231 32.527 46.23 C 32.987 45.898 33.561 45.763 34.121 45.854 C 34.68 45.944 35.182 46.254 35.513 46.715 C 35.846 47.175 35.981 47.749 35.89 48.309 C 35.8 48.867 35.49 49.369 35.029 49.701 C 35.028 49.702 35.027 49.702 35.027 49.703 L 34.341 48.752 C 34.342 48.752 34.343 48.751 34.344 48.75 C 34.552 48.6 34.692 48.373 34.733 48.12 C 34.774 47.868 34.713 47.608 34.563 47.4 C 34.413 47.192 34.186 47.051 33.934 47.011 C 33.68 46.97 33.421 47.031 33.213 47.181 C 33.212 47.182 33.211 47.182 33.21 47.183 L 32.524 46.232 Z " fill="rgb(3,34,55)"/><path d=" M 35.27 49.582 M 35.027 49.701 C 34.279 50.163 33.49 50.561 32.678 50.906 C 30.552 51.804 28.268 52.265 25.96 52.264 C 23.652 52.265 21.369 51.804 19.243 50.906 C 17.193 50.037 15.33 48.781 13.756 47.205 C 12.179 45.631 10.924 43.768 10.055 41.718 C 9.157 39.592 8.695 37.308 8.696 35 L 8.696 35 L 8.696 35 L 9.902 35 L 9.902 35 L 9.902 35 C 9.9 37.146 10.329 39.271 11.165 41.248 C 11.972 43.155 13.142 44.888 14.608 46.353 C 16.072 47.818 17.805 48.988 19.713 49.796 C 21.689 50.631 23.814 51.06 25.96 51.059 C 28.107 51.06 30.231 50.631 32.208 49.796 C 33.011 49.456 34.038 49.116 34.516 48.588 C 34.467 48.65 34.409 48.704 34.344 48.75 Q 34.343 48.751 35.027 49.701 Z " fill-rule="evenodd" fill="rgb(3,34,55)"/><path d=" M 25.96 22.316 C 24.265 22.315 22.586 22.653 21.025 23.314 C 19.519 23.952 18.15 24.875 16.993 26.032 C 15.836 27.189 14.913 28.558 14.274 30.065 C 13.614 31.627 13.275 33.304 13.276 35 L 13.276 35 C 13.275 36.696 13.614 38.374 14.274 39.935 C 14.913 41.442 15.836 42.811 16.993 43.968 C 18.15 45.125 19.519 46.048 21.025 46.686 C 22.586 47.347 24.265 47.685 25.96 47.684 C 27.656 47.685 29.335 47.347 30.895 46.686 C 31.439 46.456 31.964 46.189 32.469 45.886 L 31.836 44.911 L 31.829 44.901 C 31.664 44.96 31.739 44.98 30.427 45.576 C 29.013 46.173 27.495 46.48 25.96 46.479 C 24.426 46.48 22.908 46.173 21.494 45.576 C 20.131 44.999 18.892 44.163 17.845 43.116 C 16.798 42.068 15.961 40.829 15.384 39.466 C 14.787 38.053 14.48 36.534 14.481 35 L 14.481 35 C 14.48 33.466 14.787 31.947 15.384 30.534 C 15.961 29.171 16.798 27.932 17.845 26.884 C 18.892 25.837 20.131 25.001 21.494 24.424 C 22.908 23.827 24.426 23.52 25.96 23.521 L 25.96 23.521 L 25.96 22.316 Z " fill="rgb(3,34,55)"/><path d=" M 36.71 19.548 C 37.326 19.999 37.74 20.677 37.863 21.432 C 37.987 22.196 37.803 22.981 37.35 23.609 C 36.898 24.238 36.213 24.661 35.449 24.785 C 34.694 24.908 33.92 24.73 33.296 24.29 L 34.009 23.299 C 34.371 23.55 34.817 23.651 35.252 23.58 C 35.697 23.508 36.096 23.261 36.359 22.895 C 36.623 22.529 36.73 22.073 36.658 21.628 C 36.587 21.193 36.349 20.802 35.996 20.538 L 36.71 19.548 Z " fill="rgb(3,34,55)"/><path d=" M 34.002 23.309 C 33.213 22.765 32.369 22.301 31.482 21.925 C 29.735 21.188 27.857 20.808 25.96 20.809 C 24.063 20.808 22.186 21.188 20.438 21.925 C 18.754 22.64 17.222 23.673 15.927 24.967 C 14.633 26.261 13.6 27.793 12.886 29.478 C 12.148 31.225 11.768 33.103 11.77 35 L 11.77 35 C 11.768 36.897 12.148 38.775 12.886 40.522 C 13.6 42.207 14.633 43.739 15.927 45.033 C 17.222 46.327 18.754 47.36 20.438 48.075 C 22.186 48.812 24.063 49.192 25.96 49.191 C 27.857 49.192 29.735 48.812 31.482 48.075 C 32.154 47.79 32.967 47.349 33.583 46.965 C 33.511 46.992 33.276 47.135 33.213 47.181 C 33.212 47.182 33.211 47.182 33.21 47.183 L 32.524 46.232 C 32.525 46.232 32.526 46.231 32.527 46.23 C 32.987 45.898 32.555 46.31 31.012 46.965 C 29.414 47.64 27.696 47.987 25.96 47.986 C 24.225 47.987 22.506 47.64 20.908 46.965 C 19.366 46.31 17.964 45.366 16.779 44.181 C 15.595 42.996 14.65 41.595 13.996 40.052 C 13.321 38.454 12.974 36.735 12.975 35 L 12.975 35 C 12.974 33.265 13.321 31.546 13.996 29.948 C 14.65 28.405 15.595 27.004 16.779 25.819 C 17.964 24.634 19.366 23.69 20.908 23.035 C 22.506 22.36 24.225 22.013 25.96 22.014 C 27.696 22.013 29.414 22.36 31.012 23.035 C 31.816 23.376 32.581 23.796 33.298 24.287 L 34.002 23.309 Z  M 33.435 24.382" fill-rule="evenodd" fill="rgb(3,34,55)"/><path d=" M 36.71 19.548 C 34.771 18.349 35.47 18.73 33.288 17.651 C 30.969 16.671 28.477 16.167 25.96 16.169 C 23.444 16.167 20.952 16.671 18.633 17.651 C 16.397 18.598 14.364 19.969 12.648 21.688 C 10.93 23.404 9.558 25.437 8.611 27.673 C 7.631 29.991 7.127 32.484 7.13 35 L 7.13 35 C 7.127 37.516 7.631 40.009 8.611 42.327 C 9.558 44.563 10.93 46.596 12.648 48.312 C 14.364 50.031 16.397 51.402 18.633 52.349 C 20.952 53.329 23.444 53.833 25.96 53.831 C 28.477 53.833 30.969 53.329 33.288 52.349 C 35.492 51.33 35.617 51.121 35.81 51.038 L 35.159 50.034 C 34.411 50.493 33.629 50.896 32.818 51.24 C 30.648 52.157 28.316 52.628 25.96 52.625 C 23.604 52.628 21.272 52.157 19.103 51.24 C 17.01 50.353 15.107 49.069 13.5 47.46 C 11.891 45.854 10.608 43.951 9.721 41.857 C 8.804 39.688 8.333 37.356 8.335 35 L 8.335 35 C 8.333 32.644 8.805 30.312 9.721 28.143 C 10.608 26.049 11.891 24.146 13.5 22.54 C 15.107 20.931 17.01 19.647 19.103 18.76 C 21.272 17.843 23.604 17.372 25.96 17.375 C 28.316 17.372 30.648 17.843 32.818 18.76 C 33.942 19.237 35.011 19.845 36.009 20.538 L 36.71 19.548 Q 37.326 19.999 36.71 19.548 Z " fill="rgb(3,34,55)"/></g></g></svg>